<?xml version="1.0" standalone="no"?>
<!DOCTYPE svg PUBLIC "-//W3C//DTD SVG 20010904//EN"
 "http://www.w3.org/TR/2001/REC-SVG-20010904/DTD/svg10.dtd">
<svg version="1.0" xmlns="http://www.w3.org/2000/svg"
 width="240.000000pt" height="240.000000pt" viewBox="0 0 240.000000 240.000000"
 preserveAspectRatio="xMidYMid meet">
<metadata>
Created by potrace 1.14, written by Peter Selinger 2001-2017
</metadata>
<g transform="translate(0.000000,240.000000) scale(0.100000,-0.100000)"
fill="#000000" stroke="none">
<path d="M1079 2365 c-2 -1 -26 -6 -54 -9 -64 -9 -155 -32 -225 -57 -71 -26
-181 -79 -198 -96 -7 -7 -18 -13 -23 -13 -37 0 -319 -265 -319 -299 0 -5 -4
-11 -8 -13 -30 -11 -150 -248 -167 -329 -4 -18 -12 -40 -17 -46 -6 -7 -8 -13
-5 -13 4 0 -4 -47 -20 -105 -3 -11 -7 -83 -8 -160 -4 -190 17 -301 87 -473 34
-86 54 -123 116 -216 78 -118 270 -298 362 -339 8 -4 29 -16 47 -27 51 -31
197 -88 274 -106 145 -36 369 -40 514 -9 229 48 436 160 590 319 83 85 115
123 115 135 0 5 4 11 8 13 13 5 80 114 107 173 77 168 106 291 110 475 3 134
0 170 -30 315 -14 74 -108 295 -127 303 -5 2 -8 8 -8 14 0 32 -177 238 -270
313 -150 122 -374 218 -570 244 -63 9 -274 13 -281 6z"/>
</g>
</svg>
